<svg xmlns="http://www.w3.org/2000/svg" viewBox="0 0 24 24" fill="currentColor" class="w-10 h-10">
  <path fill-rule="evenodd" d="M18.685 19.097A9.723 9.723 0 0021.75 12c0-5.385-4.365-9.75-9.75-9.75S2.25 6.615 2.25 12c0 2.648.988 5.03 2.565 6.847m-2.55-1.45a7.23 7.23 0 01-1.988-4.297c0-4.031 3.269-7.3 7.3-7.3s7.3 3.269 7.3 7.3c0 1.664-.54 3.187-1.47 4.397m-8.28-1.45c.292-.77.753-1.468 1.343-2.06a4.5 4.5 0 016.364 0c.59.592 1.051 1.29 1.343 2.06M12 6.75a3.75 3.75 0 100 7.5 3.75 3.75 0 000-7.5z" clip-rule="evenodd" />
</svg>
